<?xml version="1.0" encoding="utf-8"?>
<!-- Generator: Adobe Illustrator 19.1.0, SVG Export Plug-In . SVG Version: 6.00 Build 0)  -->
<svg version="1.1" id="Layer_1" xmlns="http://www.w3.org/2000/svg" xmlns:xlink="http://www.w3.org/1999/xlink" x="0px" y="0px"
	 viewBox="1571.5 -829 3445 2450" style="enable-background:new 1571.5 -829 3445 2450;" xml:space="preserve">
<style type="text/css">
	.st0{fill:#222222;}
	.st1{fill:none;stroke:#DB2C2D;stroke-width:40;stroke-linecap:round;stroke-linejoin:round;}
	.st2{fill:#FFFDFD;stroke:#DB2C2D;stroke-width:20;stroke-miterlimit:10;}
</style>
<g>
	<path class="st0" d="M2500.5-518.9h-6.4l-5.2-13.7h-20.8l-4.9,13.7h-6.4l18.8-49h5.9L2500.5-518.9z M2487.1-537.8l-7.7-20.9
		c-0.3-0.7-0.5-1.8-0.8-3.3h-0.1c-0.2,1.4-0.5,2.5-0.8,3.3l-7.6,20.9H2487.1z"/>
	<path class="st0" d="M2507-518.9v-35h15.2c3.4,0,6.2,0.8,8.2,2.3c2,1.5,3,3.6,3,6.3c0,4.5-2.2,7.3-6.7,8.3c5.4,0.7,8,3.4,8,8.1
		c0,2.8-1.1,5.2-3.3,7.2c-2.2,1.9-4.9,2.9-8.2,2.9H2507z M2512.6-549.1v9.8h8.4c4.5,0,6.8-1.8,6.8-5.3c0-3.1-2-4.6-6.1-4.6H2512.6z
		 M2512.6-534.5v10.8h9.7c4.5,0,6.8-1.8,6.8-5.5c0-3.5-2.5-5.3-7.6-5.3H2512.6z"/>
	<path class="st0" d="M2573.4-518.9h-5.1v-27.9c-0.5,1-1.3,2.4-2.3,4.1l-16.2,23.8h-5.8v-35h5.1v27.6c0.3-0.7,0.9-1.8,1.8-3.4
		l16.6-24.2h5.8V-518.9z"/>
	<path class="st0" d="M2609.8-518.9h-5.6v-5.5h-0.1c-2.4,4.2-6,6.3-10.8,6.3c-3.5,0-6.2-0.9-8.2-2.8c-2-1.8-3-4.3-3-7.3
		c0-6.5,3.9-10.3,11.6-11.4l10.5-1.5c0-5.9-2.4-8.9-7.2-8.9c-4.2,0-8,1.4-11.4,4.3v-5.7c3.4-2.2,7.4-3.3,11.9-3.3
		c8.2,0,12.3,4.4,12.3,13.1V-518.9z M2604.2-536.6l-8.4,1.2c-2.6,0.4-4.6,1-5.9,1.9c-1.3,0.9-2,2.6-2,4.9c0,1.7,0.6,3.1,1.8,4.2
		s2.8,1.6,4.9,1.6c2.8,0,5.1-1,6.9-2.9c1.8-1.9,2.7-4.4,2.7-7.4V-536.6z"/>
	<path class="st0" d="M2644.2-520.5c-2.7,1.6-5.9,2.4-9.6,2.4c-5,0-9-1.6-12.1-4.9c-3.1-3.2-4.6-7.5-4.6-12.6c0-5.8,1.7-10.4,5-13.9
		c3.3-3.5,7.7-5.2,13.2-5.2c3.1,0,5.8,0.6,8.1,1.7v5.7c-2.6-1.8-5.4-2.7-8.3-2.7c-3.6,0-6.5,1.3-8.8,3.8c-2.3,2.6-3.4,5.9-3.4,10.1
		c0,4.1,1.1,7.3,3.2,9.7c2.2,2.4,5,3.6,8.7,3.6c3.1,0,5.9-1,8.6-3V-520.5z"/>
	<path class="st0" d="M2674.7-549.1h-10.5v30.2h-5.6v-30.2h-10.5v-4.8h26.6V-549.1z"/>
	<path class="st0" d="M2687.2-524h-0.1v21.2h-5.6v-51.1h5.6v6.2h0.1c2.8-4.6,6.8-7,12.1-7c4.5,0,8,1.6,10.6,4.7
		c2.5,3.1,3.8,7.3,3.8,12.6c0,5.9-1.4,10.5-4.3,14.1c-2.8,3.5-6.7,5.3-11.7,5.3C2693.1-518.1,2689.6-520,2687.2-524z M2687-538.1
		v4.9c0,2.9,0.9,5.3,2.8,7.4c1.9,2,4.3,3,7.2,3c3.4,0,6.1-1.3,8-3.9s2.9-6.2,2.9-10.8c0-3.9-0.9-6.9-2.7-9.2
		c-1.8-2.2-4.2-3.3-7.3-3.3c-3.3,0-5.9,1.1-7.9,3.4C2688-544.3,2687-541.5,2687-538.1z"/>
	<path class="st0" d="M2737.2-518.1c-5.2,0-9.3-1.6-12.4-4.9s-4.6-7.6-4.6-13c0-5.9,1.6-10.5,4.8-13.8c3.2-3.3,7.6-5,13-5
		c5.2,0,9.3,1.6,12.2,4.8s4.4,7.7,4.4,13.4c0,5.6-1.6,10.1-4.7,13.4S2742.5-518.1,2737.2-518.1z M2737.6-550c-3.6,0-6.4,1.2-8.5,3.7
		c-2.1,2.5-3.1,5.8-3.1,10.1c0,4.1,1.1,7.4,3.2,9.8s5,3.6,8.5,3.6c3.6,0,6.4-1.2,8.4-3.5c1.9-2.3,2.9-5.7,2.9-10
		c0-4.4-1-7.7-2.9-10.1C2744-548.8,2741.2-550,2737.6-550z"/>
	<path class="st0" d="M2792.9-518.9h-5.1v-27.9c-0.5,1-1.3,2.4-2.3,4.1l-16.2,23.8h-5.8v-35h5.1v27.6c0.3-0.7,0.9-1.8,1.8-3.4
		l16.6-24.2h5.8V-518.9z"/>
	<path class="st0" d="M2826.2-549.1h-10.5v30.2h-5.6v-30.2h-10.5v-4.8h26.6V-549.1z"/>
	<path class="st0" d="M2861.1-535h-24.7c0.1,3.9,1.1,6.9,3.1,9c2,2.1,4.8,3.2,8.3,3.2c3.9,0,7.6-1.3,10.9-3.9v5.3
		c-3.1,2.2-7.1,3.3-12.2,3.3c-4.9,0-8.8-1.6-11.7-4.8c-2.8-3.2-4.2-7.7-4.2-13.4c0-5.4,1.5-9.9,4.6-13.3s6.9-5.1,11.5-5.1
		s8.1,1.5,10.6,4.4c2.5,3,3.8,7.1,3.8,12.3V-535z M2855.4-539.7c0-3.2-0.8-5.8-2.3-7.6c-1.5-1.8-3.7-2.7-6.4-2.7
		c-2.6,0-4.9,0.9-6.7,2.8c-1.8,1.9-3,4.4-3.4,7.4H2855.4z"/>
	<path class="st0" d="M2895.1-518.9h-5.6v-30.2h-8.1c-0.9,11.3-2.5,19.3-4.8,23.9s-5.3,6.9-9.1,6.9c-1.2,0-2.2-0.2-3-0.5v-4.8
		c0.8,0.4,1.7,0.6,2.6,0.6c5,0,8.2-10.3,9.7-30.8h18.4V-518.9z"/>
	<path class="st0" d="M2906.5-518.9v-35h5.6v13.4h9.4c3.6,0,6.4,0.9,8.5,2.8c2.1,1.9,3.2,4.5,3.2,7.8c0,3.4-1.1,6-3.2,8
		c-2.1,2-4.8,2.9-8,2.9H2906.5z M2912.1-535.6v12h8.4c4.6,0,7-2.1,7-6.2c0-3.9-2.3-5.8-7-5.8H2912.1z"/>
	<path class="st0" d="M2970.8-518.9h-5.6v-15.9h-17.8v15.9h-5.6v-35h5.6v14.4h17.8v-14.4h5.6V-518.9z"/>
	<path class="st0" d="M3007.2-518.9h-5.6v-5.5h-0.1c-2.4,4.2-6,6.3-10.8,6.3c-3.5,0-6.2-0.9-8.2-2.8c-2-1.8-3-4.3-3-7.3
		c0-6.5,3.9-10.3,11.6-11.4l10.5-1.5c0-5.9-2.4-8.9-7.2-8.9c-4.2,0-8,1.4-11.4,4.3v-5.7c3.4-2.2,7.4-3.3,11.9-3.3
		c8.2,0,12.3,4.4,12.3,13.1V-518.9z M3001.6-536.6l-8.4,1.2c-2.6,0.4-4.6,1-5.9,1.9c-1.3,0.9-2,2.6-2,4.9c0,1.7,0.6,3.1,1.8,4.2
		s2.8,1.6,4.9,1.6c2.8,0,5.1-1,6.9-2.9c1.8-1.9,2.7-4.4,2.7-7.4V-536.6z"/>
	<path class="st0" d="M3041.7-518.9h-5.6v-14.5h-4.7c-2.3,0-4.3,1.8-6.2,5.5l-4.5,9h-6.5l5.9-10.8c1.4-2.5,3-4.2,5-5
		c-2.7-0.4-4.8-1.4-6.3-3s-2.2-3.7-2.2-6.2c0-3.1,1.1-5.6,3.4-7.4c2.2-1.8,5.4-2.7,9.5-2.7h12.2V-518.9z M3036.1-538.1v-11h-6.6
		c-4.7,0-7.1,1.8-7.1,5.4c0,3.8,2.3,5.7,6.9,5.7H3036.1z"/>
</g>
<g>
	<path class="st0" d="M2496-289.3c-3.6,1.9-8.1,2.9-13.5,2.9c-7,0-12.6-2.2-16.7-6.7c-4.2-4.5-6.3-10.4-6.3-17.7
		c0-7.8,2.4-14.2,7.1-19c4.7-4.8,10.7-7.2,17.9-7.2c4.6,0,8.5,0.7,11.6,2v6.1c-3.5-2-7.4-2.9-11.6-2.9c-5.6,0-10.2,1.9-13.7,5.6
		s-5.2,8.8-5.2,15.1c0,6,1.6,10.7,4.9,14.3c3.3,3.5,7.6,5.3,12.9,5.3c4.9,0,9.2-1.1,12.8-3.3V-289.3z"/>
	<path class="st0" d="M2533.3-303.4h-24.7c0.1,3.9,1.1,6.9,3.1,9c2,2.1,4.8,3.2,8.3,3.2c3.9,0,7.6-1.3,10.9-3.9v5.3
		c-3.1,2.2-7.1,3.3-12.2,3.3c-4.9,0-8.8-1.6-11.7-4.8c-2.8-3.2-4.2-7.7-4.2-13.4c0-5.4,1.5-9.9,4.6-13.3s6.9-5.1,11.5-5.1
		s8.1,1.5,10.6,4.4c2.5,3,3.8,7.1,3.8,12.3V-303.4z M2527.6-308.1c0-3.2-0.8-5.8-2.3-7.6c-1.5-1.8-3.7-2.7-6.4-2.7
		c-2.6,0-4.9,0.9-6.7,2.8c-1.8,1.9-3,4.4-3.4,7.4H2527.6z"/>
	<path class="st0" d="M2541.8-287.3v-35h15.2c3.4,0,6.2,0.8,8.2,2.3c2,1.5,3,3.6,3,6.3c0,4.5-2.2,7.3-6.7,8.3c5.4,0.7,8,3.4,8,8.1
		c0,2.8-1.1,5.2-3.3,7.2c-2.2,1.9-4.9,2.9-8.2,2.9H2541.8z M2547.4-317.5v9.8h8.4c4.5,0,6.8-1.8,6.8-5.3c0-3.1-2-4.6-6.1-4.6H2547.4
		z M2547.4-302.9v10.8h9.7c4.5,0,6.8-1.8,6.8-5.5c0-3.5-2.5-5.3-7.6-5.3H2547.4z"/>
	<path class="st0" d="M2607-303.4h-24.7c0.1,3.9,1.1,6.9,3.1,9c2,2.1,4.8,3.2,8.3,3.2c3.9,0,7.6-1.3,10.9-3.9v5.3
		c-3.1,2.2-7.1,3.3-12.2,3.3c-4.9,0-8.8-1.6-11.7-4.8c-2.8-3.2-4.2-7.7-4.2-13.4c0-5.4,1.5-9.9,4.6-13.3s6.9-5.1,11.5-5.1
		s8.1,1.5,10.6,4.4c2.5,3,3.8,7.1,3.8,12.3V-303.4z M2601.3-308.1c0-3.2-0.8-5.8-2.3-7.6c-1.5-1.8-3.7-2.7-6.4-2.7
		c-2.6,0-4.9,0.9-6.7,2.8c-1.8,1.9-3,4.4-3.4,7.4H2601.3z"/>
	<path class="st0" d="M2621.2-292.3h-0.1v21.2h-5.6v-51.1h5.6v6.2h0.1c2.8-4.6,6.8-7,12.1-7c4.5,0,8,1.6,10.6,4.7
		c2.5,3.1,3.8,7.3,3.8,12.6c0,5.9-1.4,10.5-4.3,14.1c-2.8,3.5-6.7,5.3-11.7,5.3C2627.2-286.5,2623.7-288.4,2621.2-292.3z
		 M2621.1-306.5v4.9c0,2.9,0.9,5.3,2.8,7.4c1.9,2,4.3,3,7.2,3c3.4,0,6.1-1.3,8-3.9s2.9-6.2,2.9-10.8c0-3.9-0.9-6.9-2.7-9.2
		c-1.8-2.2-4.2-3.3-7.3-3.3c-3.3,0-5.9,1.1-7.9,3.4C2622.1-312.7,2621.1-309.9,2621.1-306.5z"/>
	<path class="st0" d="M2685.7-287.3h-5.6v-15.9h-17.8v15.9h-5.6v-35h5.6v14.4h17.8v-14.4h5.6V-287.3z"/>
	<path class="st0" d="M2697-287.3v-35h5.6v13.4h9.4c3.6,0,6.4,0.9,8.5,2.8c2.1,1.9,3.2,4.5,3.2,7.8c0,3.4-1.1,6-3.2,8
		c-2.1,2-4.8,2.9-8,2.9H2697z M2702.6-304v12h8.4c4.6,0,7-2.1,7-6.2c0-3.9-2.3-5.8-7-5.8H2702.6z M2735.3-287.3h-5.5v-35h5.5V-287.3
		z"/>
	<path class="st0" d="M2776-287.3h-5.1v-27.9c-0.5,1-1.3,2.4-2.3,4.1l-16.2,23.8h-5.8v-35h5.1v27.6c0.3-0.7,0.9-1.8,1.8-3.4
		l16.6-24.2h5.8V-287.3z M2774-339.3c-0.3,3.2-1.6,5.7-3.9,7.6c-2.2,1.9-5.1,2.8-8.4,2.8c-3.5,0-6.3-0.9-8.5-2.8
		c-2.2-1.9-3.4-4.4-3.6-7.6h5.5c0.3,4.3,2.5,6.4,6.6,6.4c1.8,0,3.3-0.6,4.5-1.7c1.2-1.1,1.9-2.7,2.2-4.7H2774z"/>
	<path class="st0" d="M2806.5-287.3v-35h15.2c3.4,0,6.2,0.8,8.2,2.3c2,1.5,3,3.6,3,6.3c0,4.5-2.2,7.3-6.7,8.3c5.4,0.7,8,3.4,8,8.1
		c0,2.8-1.1,5.2-3.3,7.2c-2.2,1.9-4.9,2.9-8.2,2.9H2806.5z M2812.1-317.5v9.8h8.4c4.5,0,6.8-1.8,6.8-5.3c0-3.1-2-4.6-6.1-4.6H2812.1
		z M2812.1-302.9v10.8h9.7c4.5,0,6.8-1.8,6.8-5.5c0-3.5-2.5-5.3-7.6-5.3H2812.1z"/>
	<path class="st0" d="M2858.3-286.5c-5.2,0-9.3-1.6-12.4-4.9s-4.6-7.6-4.6-13c0-5.9,1.6-10.5,4.8-13.8c3.2-3.3,7.6-5,13-5
		c5.2,0,9.3,1.6,12.2,4.8s4.4,7.7,4.4,13.4c0,5.6-1.6,10.1-4.7,13.4S2863.6-286.5,2858.3-286.5z M2858.7-318.4
		c-3.6,0-6.4,1.2-8.5,3.7c-2.1,2.5-3.1,5.8-3.1,10.1c0,4.1,1.1,7.4,3.2,9.8s5,3.6,8.5,3.6c3.6,0,6.4-1.2,8.4-3.5
		c1.9-2.3,2.9-5.7,2.9-10c0-4.4-1-7.7-2.9-10.1C2865.1-317.2,2862.3-318.4,2858.7-318.4z"/>
	<path class="st0" d="M2913.7-287.3h-7.9l-15.4-16.8h-0.1v16.8h-5.6v-35h5.6v16h0.1l14.7-16h7.3l-16.2,16.9L2913.7-287.3z"/>
	<path class="st0" d="M2916.5-288.3v-5.5c3.1,1.7,6.6,2.6,10.7,2.6c6.2,0,9.3-2,9.3-5.9c0-3.9-3.4-5.8-10.2-5.8h-3.5v-4.8h3.3
		c5.9,0,8.9-1.8,8.9-5.5c0-1.6-0.7-2.8-2.1-3.8c-1.4-0.9-3.2-1.4-5.6-1.4c-3.4,0-6.8,0.9-10.2,2.6v-5.2c3.9-1.4,7.4-2.1,10.7-2.1
		c8.5,0,12.8,3.1,12.8,9.4c0,2-0.6,3.8-1.9,5.2c-1.3,1.5-3,2.4-5.3,2.9v0.2c2.6,0.2,4.7,1.1,6.3,2.6c1.6,1.5,2.4,3.5,2.4,5.9
		c0,3.2-1.3,5.7-3.9,7.6c-2.6,1.9-6.1,2.8-10.6,2.8C2922.7-286.4,2919.1-287,2916.5-288.3z"/>
	<path class="st0" d="M2975.7-287.3h-5.6v-5.5h-0.1c-2.4,4.2-6,6.3-10.8,6.3c-3.5,0-6.2-0.9-8.2-2.8c-2-1.8-3-4.3-3-7.3
		c0-6.5,3.9-10.3,11.6-11.4l10.5-1.5c0-5.9-2.4-8.9-7.2-8.9c-4.2,0-8,1.4-11.4,4.3v-5.7c3.4-2.2,7.4-3.3,11.9-3.3
		c8.2,0,12.3,4.4,12.3,13.1V-287.3z M2970.1-305l-8.4,1.2c-2.6,0.4-4.6,1-5.9,1.9c-1.3,0.9-2,2.6-2,4.9c0,1.7,0.6,3.1,1.8,4.2
		s2.8,1.6,4.9,1.6c2.8,0,5.1-1,6.9-2.9c1.8-1.9,2.7-4.4,2.7-7.4V-305z"/>
	<path class="st0" d="M3011.8-287.3h-5.6v-30.2h-8.1c-0.9,11.3-2.5,19.3-4.8,23.9s-5.3,6.9-9.1,6.9c-1.2,0-2.2-0.2-3-0.5v-4.8
		c0.8,0.4,1.7,0.6,2.6,0.6c5,0,8.2-10.3,9.7-30.8h18.4V-287.3z"/>
</g>
<g>
	<path class="st0" d="M2491.1-55.7h-5.7v-20.8h-7.1c-1.4,0-2.6,0.4-3.6,1.1c-1,0.7-2.1,2.4-3.3,5l-6.2,14.8h-6.8l7.5-16.4
		c0.5-1.1,1.2-2.2,2.2-3.4c1-1.2,2.1-2,3.5-2.5v-0.1c-3.3-0.7-5.8-2.2-7.6-4.5c-1.8-2.3-2.7-5-2.7-8.3c0-4.2,1.5-7.5,4.4-10
		c2.9-2.5,6.7-3.8,11.4-3.8h14.2V-55.7z M2485.3-81.7v-17.8h-8c-3.2,0-5.7,0.8-7.5,2.3c-1.8,1.5-2.7,3.7-2.7,6.5
		c0,2.8,0.9,5,2.7,6.6c1.8,1.6,4.3,2.4,7.3,2.4H2485.3z"/>
	<path class="st0" d="M2547.8-55.7h-44.6v-35h5.6v30.2h13.9v-30.2h5.6v30.2h13.9v-30.2h5.6V-55.7z"/>
	<path class="st0" d="M2559.2-55.7v-35h5.6v13.4h9.4c3.6,0,6.4,0.9,8.5,2.8c2.1,1.9,3.2,4.5,3.2,7.8c0,3.4-1.1,6-3.2,8
		c-2.1,2-4.8,2.9-8,2.9H2559.2z M2564.8-72.4v12h8.4c4.6,0,7-2.1,7-6.2c0-3.9-2.3-5.8-7-5.8H2564.8z"/>
	<path class="st0" d="M2620-55.7h-5.6v-30.2h-8.1c-0.9,11.3-2.5,19.3-4.8,23.9s-5.3,6.9-9.1,6.9c-1.2,0-2.2-0.2-3-0.5v-4.8
		c0.8,0.4,1.7,0.6,2.6,0.6c5,0,8.2-10.3,9.7-30.8h18.4V-55.7z"/>
	<path class="st0" d="M2659.5-71.8h-24.7c0.1,3.9,1.1,6.9,3.1,9c2,2.1,4.8,3.2,8.3,3.2c3.9,0,7.6-1.3,10.9-3.9v5.3
		c-3.1,2.2-7.1,3.3-12.2,3.3c-4.9,0-8.8-1.6-11.7-4.8c-2.8-3.2-4.2-7.7-4.2-13.4c0-5.4,1.5-9.9,4.6-13.3s6.9-5.1,11.5-5.1
		s8.1,1.5,10.6,4.4c2.5,3,3.8,7.1,3.8,12.3V-71.8z M2653.7-76.5c0-3.2-0.8-5.8-2.3-7.6c-1.5-1.8-3.7-2.7-6.4-2.7
		c-2.6,0-4.9,0.9-6.7,2.8c-1.8,1.9-3,4.4-3.4,7.4H2653.7z"/>
	<path class="st0" d="M2697-55.7h-7.9l-15.4-16.8h-0.1v16.8h-5.6v-35h5.6v16h0.1l14.7-16h7.3l-16.2,16.9L2697-55.7z"/>
</g>
<g>
	<path class="st0" d="M2621.2,148.9h-8l-18.9-22.4c-0.7-0.8-1.1-1.4-1.3-1.7h-0.1v24.1h-5.7v-49h5.7v23h0.1c0.3-0.5,0.8-1.1,1.3-1.7
		l18.3-21.4h7.1l-21,23.5L2621.2,148.9z"/>
	<path class="st0" d="M2641.6,149.7c-5.2,0-9.3-1.6-12.4-4.9s-4.6-7.6-4.6-13c0-5.9,1.6-10.5,4.8-13.8c3.2-3.3,7.6-5,13-5
		c5.2,0,9.3,1.6,12.2,4.8s4.4,7.7,4.4,13.4c0,5.6-1.6,10.1-4.7,13.4S2646.9,149.7,2641.6,149.7z M2642,117.8c-3.6,0-6.4,1.2-8.5,3.7
		c-2.1,2.5-3.1,5.8-3.1,10.1c0,4.1,1.1,7.4,3.2,9.8s5,3.6,8.5,3.6c3.6,0,6.4-1.2,8.4-3.5c1.9-2.3,2.9-5.7,2.9-10
		c0-4.4-1-7.7-2.9-10.1C2648.4,119,2645.6,117.8,2642,117.8z"/>
	<path class="st0" d="M2665.1,147.9v-5.5c3.1,1.7,6.6,2.6,10.7,2.6c6.2,0,9.3-2,9.3-5.9c0-3.9-3.4-5.8-10.2-5.8h-3.5v-4.8h3.3
		c5.9,0,8.9-1.8,8.9-5.5c0-1.6-0.7-2.8-2.1-3.8c-1.4-0.9-3.2-1.4-5.6-1.4c-3.4,0-6.8,0.9-10.2,2.6v-5.2c3.9-1.4,7.4-2.1,10.7-2.1
		c8.5,0,12.8,3.1,12.8,9.4c0,2-0.6,3.8-1.9,5.2c-1.3,1.5-3,2.4-5.3,2.9v0.2c2.6,0.2,4.7,1.1,6.3,2.6c1.6,1.5,2.4,3.5,2.4,5.9
		c0,3.2-1.3,5.7-3.9,7.6c-2.6,1.9-6.1,2.8-10.6,2.8C2671.3,149.8,2667.6,149.1,2665.1,147.9z"/>
	<path class="st0" d="M2699.2,148.9v-35h5.6v13.4h9.4c3.6,0,6.4,0.9,8.5,2.8c2.1,1.9,3.2,4.5,3.2,7.8c0,3.4-1.1,6-3.2,8
		c-2.1,2-4.8,2.9-8,2.9H2699.2z M2704.8,132.2v12h8.4c4.6,0,7-2.1,7-6.2c0-3.9-2.3-5.8-7-5.8H2704.8z"/>
	<path class="st0" d="M2758.4,148.9h-5.6v-14.5h-4.7c-2.3,0-4.3,1.8-6.2,5.5l-4.5,9h-6.5l5.9-10.8c1.4-2.5,3-4.2,5-5
		c-2.7-0.4-4.8-1.4-6.3-3s-2.2-3.7-2.2-6.2c0-3.1,1.1-5.6,3.4-7.4c2.2-1.8,5.4-2.7,9.5-2.7h12.2V148.9z M2752.8,129.7v-11h-6.6
		c-4.7,0-7.1,1.8-7.1,5.4c0,3.8,2.3,5.7,6.9,5.7H2752.8z"/>
	<path class="st0" d="M2823,146.9c-3.6,1.9-8.1,2.9-13.5,2.9c-7,0-12.6-2.2-16.7-6.7c-4.2-4.5-6.3-10.4-6.3-17.7
		c0-7.8,2.4-14.2,7.1-19c4.7-4.8,10.7-7.2,17.9-7.2c4.6,0,8.5,0.7,11.6,2v6.1c-3.5-2-7.4-2.9-11.6-2.9c-5.6,0-10.2,1.9-13.7,5.6
		s-5.2,8.8-5.2,15.1c0,6,1.6,10.7,4.9,14.3c3.3,3.5,7.6,5.3,12.9,5.3c4.9,0,9.2-1.1,12.8-3.3V146.9z"/>
	<path class="st0" d="M2857.7,148.9h-5.6v-30.2h-8.1c-0.9,11.3-2.5,19.3-4.8,23.9s-5.3,6.9-9.1,6.9c-1.2,0-2.2-0.2-3-0.5v-4.8
		c0.8,0.4,1.7,0.6,2.6,0.6c5,0,8.2-10.3,9.7-30.8h18.4V148.9z"/>
	<path class="st0" d="M2883.7,149.7c-5.2,0-9.3-1.6-12.4-4.9s-4.6-7.6-4.6-13c0-5.9,1.6-10.5,4.8-13.8c3.2-3.3,7.6-5,13-5
		c5.2,0,9.3,1.6,12.2,4.8s4.4,7.7,4.4,13.4c0,5.6-1.6,10.1-4.7,13.4S2889,149.7,2883.7,149.7z M2884.1,117.8c-3.6,0-6.4,1.2-8.5,3.7
		c-2.1,2.5-3.1,5.8-3.1,10.1c0,4.1,1.1,7.4,3.2,9.8s5,3.6,8.5,3.6c3.6,0,6.4-1.2,8.4-3.5c1.9-2.3,2.9-5.7,2.9-10
		c0-4.4-1-7.7-2.9-10.1C2890.5,119,2887.7,117.8,2884.1,117.8z"/>
	<path class="st0" d="M2937.2,96.7v5.3c-0.9,0.7-2.4,1.2-4.5,1.5c-5.1,0.8-8.7,1.5-10.8,2.2c-2,0.7-3.7,2.3-5,4.6
		c-1.3,2.3-2.1,5.8-2.5,10.3h0.1c2.7-4,6.6-5.9,11.7-5.9c4.6,0,8.4,1.6,11.2,4.8c2.8,3.2,4.2,7.3,4.2,12.5c0,5.4-1.5,9.7-4.4,12.9
		c-3,3.2-6.9,4.9-11.9,4.9c-5.4,0-9.5-1.9-12.4-5.7c-2.9-3.8-4.4-9.3-4.4-16.4c0-5.5,0.5-10.2,1.6-14c1-3.8,2.5-6.7,4.4-8.7
		c1.9-1.9,3.9-3.3,6.2-4c2.3-0.7,6.2-1.6,11.7-2.6C2934.5,97.9,2936.1,97.3,2937.2,96.7z M2914.3,126.1v4.9c0,1.8,0.3,3.6,0.8,5.4
		c0.5,1.8,1.3,3.3,2.3,4.6c1,1.3,2.1,2.3,3.5,3c1.3,0.7,2.9,1,4.6,1c3.1,0,5.6-1.2,7.6-3.5c1.9-2.3,2.9-5.3,2.9-9c0-4-1-7.2-3-9.6
		c-2-2.4-4.6-3.5-8-3.5C2920.2,119.4,2916.7,121.7,2914.3,126.1z"/>
	<path class="st0" d="M2965.3,149.7c-5.2,0-9.3-1.6-12.4-4.9s-4.6-7.6-4.6-13c0-5.9,1.6-10.5,4.8-13.8c3.2-3.3,7.6-5,13-5
		c5.2,0,9.3,1.6,12.2,4.8s4.4,7.7,4.4,13.4c0,5.6-1.6,10.1-4.7,13.4S2970.6,149.7,2965.3,149.7z M2965.7,117.8
		c-3.6,0-6.4,1.2-8.5,3.7c-2.1,2.5-3.1,5.8-3.1,10.1c0,4.1,1.1,7.4,3.2,9.8s5,3.6,8.5,3.6c3.6,0,6.4-1.2,8.4-3.5
		c1.9-2.3,2.9-5.7,2.9-10c0-4.4-1-7.7-2.9-10.1C2972.1,119,2969.3,117.8,2965.7,117.8z"/>
	<path class="st0" d="M3022.2,161.7h-4.8v-12.7h-26v12.7h-4.8v-17.5h3.1c6-8.6,9-18.7,9.1-30.2h18.2v30.2h5.2V161.7z M3011.4,144.2
		v-25.5h-7.8c-0.6,9.4-3.3,17.9-8,25.5H3011.4z"/>
	<path class="st0" d="M3055,148.9h-5.6v-5.5h-0.1c-2.4,4.2-6,6.3-10.8,6.3c-3.5,0-6.2-0.9-8.2-2.8c-2-1.8-3-4.3-3-7.3
		c0-6.5,3.9-10.3,11.6-11.4l10.5-1.5c0-5.9-2.4-8.9-7.2-8.9c-4.2,0-8,1.4-11.4,4.3v-5.7c3.4-2.2,7.4-3.3,11.9-3.3
		c8.2,0,12.3,4.4,12.3,13.1V148.9z M3049.4,131.2l-8.4,1.2c-2.6,0.4-4.6,1-5.9,1.9c-1.3,0.9-2,2.6-2,4.9c0,1.7,0.6,3.1,1.8,4.2
		s2.8,1.6,4.9,1.6c2.8,0,5.1-1,6.9-2.9c1.8-1.9,2.7-4.4,2.7-7.4V131.2z"/>
</g>
<g>
	<path class="st0" d="M2752.8,563.4h-8l-18.9-22.4c-0.7-0.8-1.1-1.4-1.3-1.7h-0.1v24.1h-5.7v-49h5.7v23h0.1c0.3-0.5,0.8-1.1,1.3-1.7
		l18.3-21.4h7.1l-21,23.5L2752.8,563.4z"/>
	<path class="st0" d="M2764.3,558.4h-0.1v21.2h-5.6v-51.1h5.6v6.2h0.1c2.8-4.6,6.8-7,12.1-7c4.5,0,8,1.6,10.6,4.7
		c2.5,3.1,3.8,7.3,3.8,12.6c0,5.9-1.4,10.5-4.3,14.1c-2.8,3.5-6.7,5.3-11.7,5.3C2770.2,564.3,2766.7,562.3,2764.3,558.4z
		 M2764.1,544.3v4.9c0,2.9,0.9,5.3,2.8,7.4c1.9,2,4.3,3,7.2,3c3.4,0,6.1-1.3,8-3.9s2.9-6.2,2.9-10.8c0-3.9-0.9-6.9-2.7-9.2
		c-1.8-2.2-4.2-3.3-7.3-3.3c-3.3,0-5.9,1.1-7.9,3.4C2765.1,538,2764.1,540.8,2764.1,544.3z"/>
	<path class="st0" d="M2827.8,547.3h-24.7c0.1,3.9,1.1,6.9,3.1,9c2,2.1,4.8,3.2,8.3,3.2c3.9,0,7.6-1.3,10.9-3.9v5.3
		c-3.1,2.2-7.1,3.3-12.2,3.3c-4.9,0-8.8-1.6-11.7-4.8c-2.8-3.2-4.2-7.7-4.2-13.4c0-5.4,1.5-9.9,4.6-13.3s6.9-5.1,11.5-5.1
		s8.1,1.5,10.6,4.4c2.5,3,3.8,7.1,3.8,12.3V547.3z M2822.1,542.6c0-3.2-0.8-5.8-2.3-7.6c-1.5-1.8-3.7-2.7-6.4-2.7
		c-2.6,0-4.9,0.9-6.7,2.8c-1.8,1.9-3,4.4-3.4,7.4H2822.1z"/>
	<path class="st0" d="M2874.1,563.4h-5.5v-28.8c-0.5,1.5-1.3,3.6-2.3,6.4l-8.8,22.4h-5l-9-22.4c-0.5-1.2-1.3-3.3-2.3-6.4v28.8h-4.8
		v-35h7.1l9.2,22.8c0.7,1.7,1.5,4,2.5,6.9l2.5-6.8l9-23h7.5V563.4z"/>
	<path class="st0" d="M2911,563.4h-5.6v-30.2h-8.1c-0.9,11.3-2.5,19.3-4.8,23.9s-5.3,6.9-9.1,6.9c-1.2,0-2.2-0.2-3-0.5v-4.8
		c0.8,0.4,1.7,0.6,2.6,0.6c5,0,8.2-10.3,9.7-30.8h18.4V563.4z"/>
	<path class="st0" d="M2950.5,547.3h-24.7c0.1,3.9,1.1,6.9,3.1,9c2,2.1,4.8,3.2,8.3,3.2c3.9,0,7.6-1.3,10.9-3.9v5.3
		c-3.1,2.2-7.1,3.3-12.2,3.3c-4.9,0-8.8-1.6-11.7-4.8c-2.8-3.2-4.2-7.7-4.2-13.4c0-5.4,1.5-9.9,4.6-13.3s6.9-5.1,11.5-5.1
		s8.1,1.5,10.6,4.4c2.5,3,3.8,7.1,3.8,12.3V547.3z M2928.7,521.8c-1,0-1.8-0.3-2.4-1s-1-1.5-1-2.4c0-1,0.3-1.8,1-2.4
		c0.6-0.6,1.4-1,2.4-1c0.9,0,1.7,0.3,2.4,1c0.7,0.7,1,1.4,1,2.4c0,0.9-0.3,1.7-1,2.4C2930.4,521.5,2929.6,521.8,2928.7,521.8z
		 M2944.7,542.6c0-3.2-0.8-5.8-2.3-7.6c-1.5-1.8-3.7-2.7-6.4-2.7c-2.6,0-4.9,0.9-6.7,2.8c-1.8,1.9-3,4.4-3.4,7.4H2944.7z
		 M2941.8,521.8c-0.9,0-1.7-0.3-2.4-1c-0.7-0.6-1-1.4-1-2.4c0-1,0.3-1.8,1-2.4c0.6-0.6,1.4-1,2.3-1c1,0,1.8,0.3,2.4,1
		c0.7,0.7,1,1.4,1,2.4c0,0.9-0.3,1.7-1,2.4C2943.6,521.5,2942.8,521.8,2941.8,521.8z"/>
	<path class="st0" d="M2958.9,563.4v-35h15.2c3.4,0,6.2,0.8,8.2,2.3c2,1.5,3,3.6,3,6.3c0,4.5-2.2,7.3-6.7,8.3c5.4,0.7,8,3.4,8,8.1
		c0,2.8-1.1,5.2-3.3,7.2c-2.2,1.9-4.9,2.9-8.2,2.9H2958.9z M2964.5,533.2v9.8h8.4c4.5,0,6.8-1.8,6.8-5.3c0-3.1-2-4.6-6.1-4.6H2964.5
		z M2964.5,547.8v10.8h9.7c4.5,0,6.8-1.8,6.8-5.5c0-3.5-2.5-5.3-7.6-5.3H2964.5z"/>
	<path class="st0" d="M3019.9,561.8c-2.7,1.6-5.9,2.4-9.6,2.4c-5,0-9-1.6-12.1-4.9c-3.1-3.2-4.6-7.5-4.6-12.6c0-5.8,1.7-10.4,5-13.9
		c3.3-3.5,7.7-5.2,13.2-5.2c3.1,0,5.8,0.6,8.1,1.7v5.7c-2.6-1.8-5.4-2.7-8.3-2.7c-3.6,0-6.5,1.3-8.8,3.8c-2.3,2.6-3.4,5.9-3.4,10.1
		c0,4.1,1.1,7.3,3.2,9.7c2.2,2.4,5,3.6,8.7,3.6c3.1,0,5.9-1,8.6-3V561.8z"/>
	<path class="st0" d="M3057.4,563.4h-7.9l-15.4-16.8h-0.1v16.8h-5.6v-35h5.6v16h0.1l14.7-16h7.3l-16.2,16.9L3057.4,563.4z"/>
	<path class="st0" d="M3088.2,563.4h-5.6V558h-0.1c-2.4,4.2-6,6.3-10.8,6.3c-3.5,0-6.2-0.9-8.2-2.8c-2-1.8-3-4.3-3-7.3
		c0-6.5,3.9-10.3,11.6-11.4l10.5-1.5c0-5.9-2.4-8.9-7.2-8.9c-4.2,0-8,1.4-11.4,4.3v-5.7c3.4-2.2,7.4-3.3,11.9-3.3
		c8.2,0,12.3,4.4,12.3,13.1V563.4z M3082.6,545.7l-8.4,1.2c-2.6,0.4-4.6,1-5.9,1.9c-1.3,0.9-2,2.6-2,4.9c0,1.7,0.6,3.1,1.8,4.2
		s2.8,1.6,4.9,1.6c2.8,0,5.1-1,6.9-2.9c1.8-1.9,2.7-4.4,2.7-7.4V545.7z"/>
	<path class="st0" d="M3122.7,563.4h-5.6v-14.5h-4.7c-2.3,0-4.3,1.8-6.2,5.5l-4.5,9h-6.5l5.9-10.8c1.4-2.5,3-4.2,5-5
		c-2.7-0.4-4.8-1.4-6.3-3s-2.2-3.7-2.2-6.2c0-3.1,1.1-5.6,3.4-7.4c2.2-1.8,5.4-2.7,9.5-2.7h12.2V563.4z M3117.1,544.3v-11h-6.6
		c-4.7,0-7.1,1.8-7.1,5.4c0,3.8,2.3,5.7,6.9,5.7H3117.1z"/>
</g>
<g>
	<path class="st0" d="M2925.4,732.9h-5.8v-43.7h-25.6v43.7h-5.8v-49h37.2V732.9z"/>
	<path class="st0" d="M2962.8,732.9h-5.6v-30.2h-8.1c-0.9,11.3-2.5,19.3-4.8,23.9s-5.3,6.9-9.1,6.9c-1.2,0-2.2-0.2-3-0.5v-4.8
		c0.8,0.4,1.7,0.6,2.6,0.6c5,0,8.2-10.3,9.7-30.8h18.4V732.9z"/>
	<path class="st0" d="M2988.8,733.7c-5.2,0-9.3-1.6-12.4-4.9s-4.6-7.6-4.6-13c0-5.9,1.6-10.5,4.8-13.8c3.2-3.3,7.6-5,13-5
		c5.2,0,9.3,1.6,12.2,4.8s4.4,7.7,4.4,13.4c0,5.6-1.6,10.1-4.7,13.4S2994.1,733.7,2988.8,733.7z M2989.2,701.8
		c-3.6,0-6.4,1.2-8.5,3.7c-2.1,2.5-3.1,5.8-3.1,10.1c0,4.1,1.1,7.4,3.2,9.8s5,3.6,8.5,3.6c3.6,0,6.4-1.2,8.4-3.5
		c1.9-2.3,2.9-5.7,2.9-10c0-4.4-1-7.7-2.9-10.1C2995.6,703,2992.9,701.8,2989.2,701.8z"/>
	<path class="st0" d="M3065.1,745.7h-4.9v-12.7h-45v-35h5.6v30.2h13.9v-30.2h5.6v30.2h13.9v-30.2h5.6v30.2h5.2V745.7z"/>
	<path class="st0" d="M3098,732.9h-5.6v-5.5h-0.1c-2.4,4.2-6,6.3-10.8,6.3c-3.5,0-6.2-0.9-8.2-2.8c-2-1.8-3-4.3-3-7.3
		c0-6.5,3.9-10.3,11.6-11.4l10.5-1.5c0-5.9-2.4-8.9-7.2-8.9c-4.2,0-8,1.4-11.4,4.3v-5.7c3.4-2.2,7.4-3.3,11.9-3.3
		c8.2,0,12.3,4.4,12.3,13.1V732.9z M3092.4,715.2l-8.4,1.2c-2.6,0.4-4.6,1-5.9,1.9c-1.3,0.9-2,2.6-2,4.9c0,1.7,0.6,3.1,1.8,4.2
		s2.8,1.6,4.9,1.6c2.8,0,5.1-1,6.9-2.9c1.8-1.9,2.7-4.4,2.7-7.4V715.2z"/>
	<path class="st0" d="M3139,745.7h-4.8v-12.7h-26v12.7h-4.8v-17.5h3.1c6-8.6,9-18.7,9.1-30.2h18.2v30.2h5.2V745.7z M3128.2,728.2
		v-25.5h-7.8c-0.6,9.4-3.3,17.9-8,25.5H3128.2z"/>
	<path class="st0" d="M3146.8,732.9v-35h5.6v13.4h9.4c3.6,0,6.4,0.9,8.5,2.8c2.1,1.9,3.2,4.5,3.2,7.8c0,3.4-1.1,6-3.2,8
		c-2.1,2-4.8,2.9-8,2.9H3146.8z M3152.4,716.2v12h8.4c4.6,0,7-2.1,7-6.2c0-3.9-2.3-5.8-7-5.8H3152.4z"/>
	<path class="st0" d="M3231,689.1h-14.2v43.8h-5.7v-43.8H3197v-5.2h34V689.1z"/>
	<path class="st0" d="M3265.8,697.9l-16.1,40.6c-2.9,7.2-6.9,10.9-12.1,10.9c-1.5,0-2.7-0.1-3.7-0.4v-5c1.2,0.4,2.3,0.6,3.3,0.6
		c2.8,0,4.9-1.7,6.4-5.1l2.8-6.6l-13.7-34.9h6.2l9.5,26.9c0.1,0.3,0.4,1.2,0.7,2.7h0.2c0.1-0.5,0.3-1.4,0.7-2.6l9.9-27H3265.8z"/>
	<path class="st0" d="M3300.8,732.9h-7.9l-15.4-16.8h-0.1v16.8h-5.6v-35h5.6v16h0.1l14.7-16h7.3l-16.2,16.9L3300.8,732.9z"/>
	<path class="st0" d="M3331.6,732.9h-5.6v-5.5h-0.1c-2.4,4.2-6,6.3-10.8,6.3c-3.5,0-6.2-0.9-8.2-2.8c-2-1.8-3-4.3-3-7.3
		c0-6.5,3.9-10.3,11.6-11.4l10.5-1.5c0-5.9-2.4-8.9-7.2-8.9c-4.2,0-8,1.4-11.4,4.3v-5.7c3.4-2.2,7.4-3.3,11.9-3.3
		c8.2,0,12.3,4.4,12.3,13.1V732.9z M3326,715.2l-8.4,1.2c-2.6,0.4-4.6,1-5.9,1.9c-1.3,0.9-2,2.6-2,4.9c0,1.7,0.6,3.1,1.8,4.2
		s2.8,1.6,4.9,1.6c2.8,0,5.1-1,6.9-2.9c1.8-1.9,2.7-4.4,2.7-7.4V715.2z"/>
	<path class="st0" d="M3366.1,732.9h-5.6v-14.5h-4.7c-2.3,0-4.3,1.8-6.2,5.5l-4.5,9h-6.5l5.9-10.8c1.4-2.5,3-4.2,5-5
		c-2.7-0.4-4.8-1.4-6.3-3s-2.2-3.7-2.2-6.2c0-3.1,1.1-5.6,3.4-7.4c2.2-1.8,5.4-2.7,9.5-2.7h12.2V732.9z M3360.5,713.7v-11h-6.6
		c-4.7,0-7.1,1.8-7.1,5.4c0,3.8,2.3,5.7,6.9,5.7H3360.5z"/>
</g>
<g>
	<path class="st0" d="M3091,900.3c-3.6,1.9-8.1,2.9-13.5,2.9c-7,0-12.6-2.2-16.7-6.7c-4.2-4.5-6.3-10.4-6.3-17.7
		c0-7.8,2.4-14.2,7.1-19c4.7-4.8,10.7-7.2,17.9-7.2c4.6,0,8.5,0.7,11.6,2v6.1c-3.5-2-7.4-2.9-11.6-2.9c-5.6,0-10.2,1.9-13.7,5.6
		s-5.2,8.8-5.2,15.1c0,6,1.6,10.7,4.9,14.3c3.3,3.5,7.6,5.3,12.9,5.3c4.9,0,9.2-1.1,12.8-3.3V900.3z"/>
	<path class="st0" d="M3128.1,867.4L3112,908c-2.9,7.2-6.9,10.9-12.1,10.9c-1.5,0-2.7-0.1-3.7-0.4v-5c1.2,0.4,2.3,0.6,3.3,0.6
		c2.8,0,4.9-1.7,6.4-5.1l2.8-6.6l-13.7-34.9h6.2l9.5,26.9c0.1,0.3,0.4,1.2,0.7,2.7h0.2c0.1-0.5,0.3-1.4,0.7-2.6l9.9-27H3128.1z"/>
	<path class="st0" d="M3163.2,902.4h-7.9l-15.4-16.8h-0.1v16.8h-5.6v-35h5.6v16h0.1l14.7-16h7.3l-16.2,16.9L3163.2,902.4z"/>
	<path class="st0" d="M3183.5,903.2c-5.2,0-9.3-1.6-12.4-4.9s-4.6-7.6-4.6-13c0-5.9,1.6-10.5,4.8-13.8c3.2-3.3,7.6-5,13-5
		c5.2,0,9.3,1.6,12.2,4.8s4.4,7.7,4.4,13.4c0,5.6-1.6,10.1-4.7,13.4S3188.8,903.2,3183.5,903.2z M3183.9,871.3
		c-3.6,0-6.4,1.2-8.5,3.7c-2.1,2.5-3.1,5.8-3.1,10.1c0,4.1,1.1,7.4,3.2,9.8s5,3.6,8.5,3.6c3.6,0,6.4-1.2,8.4-3.5
		c1.9-2.3,2.9-5.7,2.9-10c0-4.4-1-7.7-2.9-10.1C3190.3,872.5,3187.6,871.3,3183.9,871.3z"/>
	<path class="st0" d="M3239,902.4h-5.6v-15.9h-17.8v15.9h-5.6v-35h5.6v14.4h17.8v-14.4h5.6V902.4z"/>
	<path class="st0" d="M3279.4,902.4h-5.6v-15.9h-17.8v15.9h-5.6v-35h5.6v14.4h17.8v-14.4h5.6V902.4z"/>
	<path class="st0" d="M3315.8,902.4h-5.6v-5.5h-0.1c-2.4,4.2-6,6.3-10.8,6.3c-3.5,0-6.2-0.9-8.2-2.8c-2-1.8-3-4.3-3-7.3
		c0-6.5,3.9-10.3,11.6-11.4l10.5-1.5c0-5.9-2.4-8.9-7.2-8.9c-4.2,0-8,1.4-11.4,4.3v-5.7c3.4-2.2,7.4-3.3,11.9-3.3
		c8.2,0,12.3,4.4,12.3,13.1V902.4z M3310.2,884.7l-8.4,1.2c-2.6,0.4-4.6,1-5.9,1.9c-1.3,0.9-2,2.6-2,4.9c0,1.7,0.6,3.1,1.8,4.2
		s2.8,1.6,4.9,1.6c2.8,0,5.1-1,6.9-2.9c1.8-1.9,2.7-4.4,2.7-7.4V884.7z"/>
	<path class="st0" d="M3350.3,902.4h-5.6v-14.5h-4.7c-2.3,0-4.3,1.8-6.2,5.5l-4.5,9h-6.5l5.9-10.8c1.4-2.5,3-4.2,5-5
		c-2.7-0.4-4.8-1.4-6.3-3s-2.2-3.7-2.2-6.2c0-3.1,1.1-5.6,3.4-7.4c2.2-1.8,5.4-2.7,9.5-2.7h12.2V902.4z M3344.7,883.2v-11h-6.6
		c-4.7,0-7.1,1.8-7.1,5.4c0,3.8,2.3,5.7,6.9,5.7H3344.7z"/>
	<path class="st0" d="M3414.8,900.3c-3.6,1.9-8.1,2.9-13.5,2.9c-7,0-12.6-2.2-16.7-6.7c-4.2-4.5-6.3-10.4-6.3-17.7
		c0-7.8,2.4-14.2,7.1-19c4.7-4.8,10.7-7.2,17.9-7.2c4.6,0,8.5,0.7,11.6,2v6.1c-3.5-2-7.4-2.9-11.6-2.9c-5.6,0-10.2,1.9-13.7,5.6
		s-5.2,8.8-5.2,15.1c0,6,1.6,10.7,4.9,14.3c3.3,3.5,7.6,5.3,12.9,5.3c4.9,0,9.2-1.1,12.8-3.3V900.3z"/>
	<path class="st0" d="M3449.6,902.4h-5.6v-30.2h-8.1c-0.9,11.3-2.5,19.3-4.8,23.9s-5.3,6.9-9.1,6.9c-1.2,0-2.2-0.2-3-0.5v-4.8
		c0.8,0.4,1.7,0.6,2.6,0.6c5,0,8.2-10.3,9.7-30.8h18.4V902.4z"/>
	<path class="st0" d="M3475.6,903.2c-5.2,0-9.3-1.6-12.4-4.9s-4.6-7.6-4.6-13c0-5.9,1.6-10.5,4.8-13.8c3.2-3.3,7.6-5,13-5
		c5.2,0,9.3,1.6,12.2,4.8s4.4,7.7,4.4,13.4c0,5.6-1.6,10.1-4.7,13.4S3480.9,903.2,3475.6,903.2z M3476,871.3c-3.6,0-6.4,1.2-8.5,3.7
		c-2.1,2.5-3.1,5.8-3.1,10.1c0,4.1,1.1,7.4,3.2,9.8s5,3.6,8.5,3.6c3.6,0,6.4-1.2,8.4-3.5c1.9-2.3,2.9-5.7,2.9-10
		c0-4.4-1-7.7-2.9-10.1C3482.4,872.5,3479.6,871.3,3476,871.3z"/>
	<path class="st0" d="M3529,850.2v5.3c-0.9,0.7-2.4,1.2-4.5,1.5c-5.1,0.8-8.7,1.5-10.8,2.2c-2,0.7-3.7,2.3-5,4.6
		c-1.3,2.3-2.1,5.8-2.5,10.3h0.1c2.7-4,6.6-5.9,11.7-5.9c4.6,0,8.4,1.6,11.2,4.8c2.8,3.2,4.2,7.3,4.2,12.5c0,5.4-1.5,9.7-4.4,12.9
		c-3,3.2-6.9,4.9-11.9,4.9c-5.4,0-9.5-1.9-12.4-5.7c-2.9-3.8-4.4-9.3-4.4-16.4c0-5.5,0.5-10.2,1.6-14c1-3.8,2.5-6.7,4.4-8.7
		c1.9-1.9,3.9-3.3,6.2-4c2.3-0.7,6.2-1.6,11.7-2.6C3526.3,851.4,3527.9,850.8,3529,850.2z M3506.2,879.6v4.9c0,1.8,0.3,3.6,0.8,5.4
		c0.5,1.8,1.3,3.3,2.3,4.6c1,1.3,2.1,2.3,3.5,3c1.3,0.7,2.9,1,4.6,1c3.1,0,5.6-1.2,7.6-3.5c1.9-2.3,2.9-5.3,2.9-9c0-4-1-7.2-3-9.6
		c-2-2.4-4.6-3.5-8-3.5C3512.1,872.9,3508.5,875.2,3506.2,879.6z"/>
	<path class="st0" d="M3557.1,903.2c-5.2,0-9.3-1.6-12.4-4.9s-4.6-7.6-4.6-13c0-5.9,1.6-10.5,4.8-13.8c3.2-3.3,7.6-5,13-5
		c5.2,0,9.3,1.6,12.2,4.8s4.4,7.7,4.4,13.4c0,5.6-1.6,10.1-4.7,13.4S3562.4,903.2,3557.1,903.2z M3557.5,871.3
		c-3.6,0-6.4,1.2-8.5,3.7c-2.1,2.5-3.1,5.8-3.1,10.1c0,4.1,1.1,7.4,3.2,9.8s5,3.6,8.5,3.6c3.6,0,6.4-1.2,8.4-3.5
		c1.9-2.3,2.9-5.7,2.9-10c0-4.4-1-7.7-2.9-10.1C3563.9,872.5,3561.1,871.3,3557.5,871.3z"/>
	<path class="st0" d="M3614,915.1h-4.8v-12.7h-26v12.7h-4.8v-17.5h3.1c6-8.6,9-18.7,9.1-30.2h18.2v30.2h5.2V915.1z M3603.2,897.6
		v-25.5h-7.8c-0.6,9.4-3.3,17.9-8,25.5H3603.2z"/>
	<path class="st0" d="M3646.8,902.4h-5.6v-5.5h-0.1c-2.4,4.2-6,6.3-10.8,6.3c-3.5,0-6.2-0.9-8.2-2.8c-2-1.8-3-4.3-3-7.3
		c0-6.5,3.8-10.3,11.6-11.4l10.5-1.5c0-5.9-2.4-8.9-7.2-8.9c-4.2,0-8,1.4-11.4,4.3v-5.7c3.4-2.2,7.4-3.3,11.9-3.3
		c8.2,0,12.3,4.4,12.3,13.1V902.4z M3641.2,884.7l-8.4,1.2c-2.6,0.4-4.6,1-5.9,1.9c-1.3,0.9-2,2.6-2,4.9c0,1.7,0.6,3.1,1.8,4.2
		s2.8,1.6,4.9,1.6c2.8,0,5.1-1,6.9-2.9c1.8-1.9,2.7-4.4,2.7-7.4V884.7z"/>
</g>
<g>
	<path class="st0" d="M3265.1,1071.9h-6.4l-5.2-13.7h-20.8l-4.9,13.7h-6.4l18.8-49h5.9L3265.1,1071.9z M3251.6,1053l-7.7-20.9
		c-0.3-0.7-0.5-1.8-0.8-3.3h-0.1c-0.2,1.4-0.5,2.5-0.8,3.3l-7.6,20.9H3251.6z"/>
	<path class="st0" d="M3309.3,1071.9h-5.5V1043c-0.5,1.5-1.3,3.6-2.3,6.4l-8.8,22.4h-5l-9-22.4c-0.5-1.2-1.3-3.3-2.3-6.4v28.8h-4.8
		v-35h7.1l9.2,22.8c0.7,1.7,1.5,4,2.5,6.9l2.5-6.8l9-23h7.5V1071.9z"/>
	<path class="st0" d="M3348.8,1055.8h-24.7c0.1,3.9,1.1,6.9,3.1,9c2,2.1,4.8,3.2,8.3,3.2c3.9,0,7.6-1.3,10.9-3.9v5.3
		c-3.1,2.2-7.1,3.3-12.2,3.3c-4.9,0-8.8-1.6-11.7-4.8c-2.8-3.2-4.2-7.7-4.2-13.4c0-5.4,1.5-9.9,4.6-13.3s6.9-5.1,11.5-5.1
		s8.1,1.5,10.6,4.4c2.5,3,3.8,7.1,3.8,12.3V1055.8z M3343.1,1051c0-3.2-0.8-5.8-2.3-7.6c-1.5-1.8-3.7-2.7-6.4-2.7
		c-2.6,0-4.9,0.9-6.7,2.8c-1.8,1.9-3,4.4-3.4,7.4H3343.1z"/>
	<path class="st0" d="M3379.3,1041.7h-10.5v30.2h-5.6v-30.2h-10.5v-4.8h26.6V1041.7z"/>
	<path class="st0" d="M3386,1071.9v-35h5.6v13.4h9.4c3.6,0,6.4,0.9,8.5,2.8c2.1,1.9,3.2,4.5,3.2,7.8c0,3.4-1.1,6-3.2,8
		c-2.1,2-4.8,2.9-8,2.9H3386z M3391.6,1055.1v12h8.4c4.6,0,7-2.1,7-6.2c0-3.9-2.3-5.8-7-5.8H3391.6z"/>
	<path class="st0" d="M3449.4,1055.8h-24.7c0.1,3.9,1.1,6.9,3.1,9c2,2.1,4.8,3.2,8.3,3.2c3.9,0,7.6-1.3,10.9-3.9v5.3
		c-3.1,2.2-7.1,3.3-12.2,3.3c-4.9,0-8.8-1.6-11.7-4.8c-2.8-3.2-4.2-7.7-4.2-13.4c0-5.4,1.5-9.9,4.6-13.3s6.9-5.1,11.5-5.1
		s8.1,1.5,10.6,4.4c2.5,3,3.8,7.1,3.8,12.3V1055.8z M3443.7,1051c0-3.2-0.8-5.8-2.3-7.6c-1.5-1.8-3.7-2.7-6.4-2.7
		c-2.6,0-4.9,0.9-6.7,2.8c-1.8,1.9-3,4.4-3.4,7.4H3443.7z"/>
	<path class="st0" d="M3457.9,1071.9v-35h15.2c3.4,0,6.2,0.8,8.2,2.3c2,1.5,3,3.6,3,6.3c0,4.5-2.2,7.3-6.7,8.3c5.4,0.7,8,3.4,8,8.1
		c0,2.8-1.1,5.2-3.3,7.2c-2.2,1.9-4.9,2.9-8.2,2.9H3457.9z M3463.5,1041.7v9.8h8.4c4.5,0,6.8-1.8,6.8-5.3c0-3.1-2-4.6-6.1-4.6
		H3463.5z M3463.5,1056.3v10.8h9.7c4.5,0,6.8-1.8,6.8-5.5c0-3.5-2.5-5.3-7.6-5.3H3463.5z"/>
	<path class="st0" d="M3509.6,1072.7c-5.2,0-9.3-1.6-12.4-4.9s-4.6-7.6-4.6-13c0-5.9,1.6-10.5,4.8-13.8c3.2-3.3,7.6-5,13-5
		c5.2,0,9.3,1.6,12.2,4.8s4.4,7.7,4.4,13.4c0,5.6-1.6,10.1-4.7,13.4S3514.9,1072.7,3509.6,1072.7z M3510,1040.8
		c-3.6,0-6.4,1.2-8.5,3.7c-2.1,2.5-3.1,5.8-3.1,10.1c0,4.1,1.1,7.4,3.2,9.8s5,3.6,8.5,3.6c3.6,0,6.4-1.2,8.4-3.5
		c1.9-2.3,2.9-5.7,2.9-10c0-4.4-1-7.7-2.9-10.1C3516.4,1042,3513.6,1040.8,3510,1040.8z"/>
</g>
<g>
	<path class="st0" d="M3600.7,1183.3H3581v43.7h-5.8v-49h25.4V1183.3z"/>
	<path class="st0" d="M3622.1,1227.8c-5.2,0-9.3-1.6-12.4-4.9s-4.6-7.6-4.6-13c0-5.9,1.6-10.5,4.8-13.8c3.2-3.3,7.6-5,13-5
		c5.2,0,9.3,1.6,12.2,4.8s4.4,7.7,4.4,13.4c0,5.6-1.6,10.1-4.7,13.4S3627.4,1227.8,3622.1,1227.8z M3622.5,1195.9
		c-3.6,0-6.4,1.2-8.5,3.7c-2.1,2.5-3.1,5.8-3.1,10.1c0,4.1,1.1,7.4,3.2,9.8s5,3.6,8.5,3.6c3.6,0,6.4-1.2,8.4-3.5
		c1.9-2.3,2.9-5.7,2.9-10c0-4.4-1-7.7-2.9-10.1C3629,1197.1,3626.2,1195.9,3622.5,1195.9z"/>
	<path class="st0" d="M3654.3,1221.9h-0.1v21.2h-5.6V1192h5.6v6.2h0.1c2.8-4.6,6.8-7,12.1-7c4.5,0,8,1.6,10.6,4.7
		c2.5,3.1,3.8,7.3,3.8,12.6c0,5.9-1.4,10.5-4.3,14.1c-2.8,3.5-6.7,5.3-11.7,5.3C3660.2,1227.8,3656.7,1225.9,3654.3,1221.9z
		 M3654.1,1207.8v4.9c0,2.9,0.9,5.3,2.8,7.4c1.9,2,4.3,3,7.2,3c3.4,0,6.1-1.3,8-3.9s2.9-6.2,2.9-10.8c0-3.9-0.9-6.9-2.7-9.2
		c-1.8-2.2-4.2-3.3-7.3-3.3c-3.3,0-5.9,1.1-7.9,3.4C3655.1,1201.6,3654.1,1204.4,3654.1,1207.8z"/>
	<path class="st0" d="M3718.7,1227h-7.9l-15.4-16.8h-0.1v16.8h-5.6v-35h5.6v16h0.1l14.7-16h7.3l-16.2,16.9L3718.7,1227z"/>
	<path class="st0" d="M3753.8,1227h-5.1v-27.9c-0.5,1-1.3,2.4-2.3,4.1l-16.2,23.8h-5.8v-35h5.1v27.6c0.3-0.7,0.9-1.8,1.8-3.4
		l16.6-24.2h5.8V1227z"/>
</g>
<g>
	<path class="st0" d="M3737.3,1351.9h-5.8v-43.7h-25.6v43.7h-5.8v-49h37.2V1351.9z"/>
	<path class="st0" d="M3755.1,1346.9h-0.1v21.2h-5.6v-51.1h5.6v6.2h0.1c2.8-4.6,6.8-7,12.1-7c4.5,0,8,1.6,10.6,4.7
		c2.5,3.1,3.8,7.3,3.8,12.6c0,5.9-1.4,10.5-4.3,14.1c-2.8,3.5-6.7,5.3-11.7,5.3C3761,1352.7,3757.5,1350.8,3755.1,1346.9z
		 M3754.9,1332.7v4.9c0,2.9,0.9,5.3,2.8,7.4c1.9,2,4.3,3,7.2,3c3.4,0,6.1-1.3,8-3.9s2.9-6.2,2.9-10.8c0-3.9-0.9-6.9-2.7-9.2
		c-1.8-2.2-4.2-3.3-7.3-3.3c-3.3,0-5.9,1.1-7.9,3.4C3755.9,1326.5,3754.9,1329.3,3754.9,1332.7z"/>
	<path class="st0" d="M3805.1,1352.7c-5.2,0-9.3-1.6-12.4-4.9s-4.6-7.6-4.6-13c0-5.9,1.6-10.5,4.8-13.8c3.2-3.3,7.6-5,13-5
		c5.2,0,9.3,1.6,12.2,4.8s4.4,7.7,4.4,13.4c0,5.6-1.6,10.1-4.7,13.4S3810.4,1352.7,3805.1,1352.7z M3805.5,1320.8
		c-3.6,0-6.4,1.2-8.5,3.7c-2.1,2.5-3.1,5.8-3.1,10.1c0,4.1,1.1,7.4,3.2,9.8s5,3.6,8.5,3.6c3.6,0,6.4-1.2,8.4-3.5
		c1.9-2.3,2.9-5.7,2.9-10c0-4.4-1-7.7-2.9-10.1C3811.9,1322,3809.1,1320.8,3805.5,1320.8z"/>
	<path class="st0" d="M3855.3,1350.3c-2.7,1.6-5.9,2.4-9.6,2.4c-5,0-9-1.6-12.1-4.9c-3.1-3.2-4.6-7.5-4.6-12.6
		c0-5.8,1.7-10.4,5-13.9c3.3-3.5,7.7-5.2,13.2-5.2c3.1,0,5.8,0.6,8.1,1.7v5.7c-2.6-1.8-5.4-2.7-8.3-2.7c-3.6,0-6.5,1.3-8.8,3.8
		c-2.3,2.6-3.4,5.9-3.4,10.1c0,4.1,1.1,7.3,3.2,9.7c2.2,2.4,5,3.6,8.7,3.6c3.1,0,5.9-1,8.6-3V1350.3z"/>
	<path class="st0" d="M3892.9,1351.9h-5.6v-30.2h-17.8v30.2h-5.6v-35h29.1V1351.9z"/>
	<path class="st0" d="M3932.3,1335.8h-24.7c0.1,3.9,1.1,6.9,3.1,9c2,2.1,4.8,3.2,8.3,3.2c3.9,0,7.6-1.3,10.9-3.9v5.3
		c-3.1,2.2-7.1,3.3-12.2,3.3c-4.9,0-8.8-1.6-11.7-4.8c-2.8-3.2-4.2-7.7-4.2-13.4c0-5.4,1.5-9.9,4.6-13.3s6.9-5.1,11.5-5.1
		s8.1,1.5,10.6,4.4c2.5,3,3.8,7.1,3.8,12.3V1335.8z M3926.6,1331.1c0-3.2-0.8-5.8-2.3-7.6c-1.5-1.8-3.7-2.7-6.4-2.7
		c-2.6,0-4.9,0.9-6.7,2.8c-1.8,1.9-3,4.4-3.4,7.4H3926.6z"/>
	<path class="st0" d="M3969.9,1351.9h-7.9l-15.4-16.8h-0.1v16.8h-5.6v-35h5.6v16h0.1l14.7-16h7.3l-16.2,16.9L3969.9,1351.9z"/>
	<path class="st0" d="M3997.6,1321.7h-10.5v30.2h-5.6v-30.2H3971v-4.8h26.6V1321.7z"/>
	<path class="st0" d="M4061.4,1351.9h-5.8v-43.7H4030v43.7h-5.8v-49h37.2V1351.9z"/>
	<path class="st0" d="M4088,1352.7c-5.2,0-9.3-1.6-12.4-4.9s-4.6-7.6-4.6-13c0-5.9,1.6-10.5,4.8-13.8c3.2-3.3,7.6-5,13-5
		c5.2,0,9.3,1.6,12.2,4.8s4.4,7.7,4.4,13.4c0,5.6-1.6,10.1-4.7,13.4S4093.3,1352.7,4088,1352.7z M4088.4,1320.8
		c-3.6,0-6.4,1.2-8.5,3.7c-2.1,2.5-3.1,5.8-3.1,10.1c0,4.1,1.1,7.4,3.2,9.8s5,3.6,8.5,3.6c3.6,0,6.4-1.2,8.4-3.5
		c1.9-2.3,2.9-5.7,2.9-10c0-4.4-1-7.7-2.9-10.1C4094.8,1322,4092.1,1320.8,4088.4,1320.8z"/>
	<path class="st0" d="M4141.5,1299.7v5.3c-0.9,0.7-2.4,1.2-4.5,1.5c-5.1,0.8-8.7,1.5-10.8,2.2c-2,0.7-3.7,2.3-5,4.6
		c-1.3,2.3-2.1,5.8-2.5,10.3h0.1c2.7-4,6.6-5.9,11.7-5.9c4.6,0,8.4,1.6,11.2,4.8c2.8,3.2,4.2,7.3,4.2,12.5c0,5.4-1.5,9.7-4.4,12.9
		c-3,3.2-6.9,4.9-11.9,4.9c-5.4,0-9.5-1.9-12.4-5.7c-2.9-3.8-4.4-9.3-4.4-16.4c0-5.5,0.5-10.2,1.6-14c1-3.8,2.5-6.7,4.4-8.7
		c1.9-1.9,3.9-3.3,6.2-4c2.3-0.7,6.2-1.6,11.7-2.6C4138.8,1300.9,4140.4,1300.3,4141.5,1299.7z M4118.6,1329.1v4.9
		c0,1.8,0.3,3.6,0.8,5.4c0.5,1.8,1.3,3.3,2.3,4.6c1,1.3,2.1,2.3,3.5,3c1.3,0.7,2.9,1,4.6,1c3.1,0,5.6-1.2,7.6-3.5
		c1.9-2.3,2.9-5.3,2.9-9c0-4-1-7.2-3-9.6c-2-2.4-4.6-3.5-8-3.5C4124.6,1322.4,4121,1324.7,4118.6,1329.1z"/>
	<path class="st0" d="M4183.1,1335.8h-24.7c0.1,3.9,1.1,6.9,3.1,9c2,2.1,4.8,3.2,8.3,3.2c3.9,0,7.6-1.3,10.9-3.9v5.3
		c-3.1,2.2-7.1,3.3-12.2,3.3c-4.9,0-8.8-1.6-11.7-4.8c-2.8-3.2-4.2-7.7-4.2-13.4c0-5.4,1.5-9.9,4.6-13.3s6.9-5.1,11.5-5.1
		s8.1,1.5,10.6,4.4c2.5,3,3.8,7.1,3.8,12.3V1335.8z M4177.3,1331.1c0-3.2-0.8-5.8-2.3-7.6c-1.5-1.8-3.7-2.7-6.4-2.7
		c-2.6,0-4.9,0.9-6.7,2.8c-1.8,1.9-3,4.4-3.4,7.4H4177.3z"/>
	<path class="st0" d="M4222.1,1364.7h-4.8v-12.7h-26v12.7h-4.8v-17.5h3.1c6-8.6,9-18.7,9.1-30.2h18.2v30.2h5.2V1364.7z
		 M4211.3,1347.2v-25.5h-7.8c-0.6,9.4-3.3,17.9-8,25.5H4211.3z"/>
	<path class="st0" d="M4229.8,1351.9v-35h5.6v13.4h9.4c3.6,0,6.4,0.9,8.5,2.8c2.1,1.9,3.2,4.5,3.2,7.8c0,3.4-1.1,6-3.2,8
		c-2.1,2-4.8,2.9-8,2.9H4229.8z M4235.4,1335.2v12h8.4c4.6,0,7-2.1,7-6.2c0-3.9-2.3-5.8-7-5.8H4235.4z M4268.1,1351.9h-5.5v-35h5.5
		V1351.9z"/>
</g>
<line class="st1" x1="2554.5" y1="477.1" x2="3194.5" y2="1117.1"/>
<line class="st1" x1="2554.5" y1="194.1" x2="2554.5" y2="474.1"/>
<line class="st1" x1="2364.2" y1="-539.4" x2="2364.2" y2="3.8"/>
<line class="st1" x1="3387.5" y1="1117.1" x2="3194.5" y2="1117.1"/>
<path class="st2" d="M2789.7,762.4c13.8,0,25.6-4.9,35.4-14.7c9.8-9.8,14.6-21.6,14.6-35.3s-4.9-25.6-14.6-35.4
	c-9.7-9.7-21.5-14.6-35.4-14.6c-13.8,0-25.6,4.9-35.4,14.6c-9.8,9.8-14.7,21.6-14.6,35.4c0,13.8,4.9,25.6,14.6,35.3
	C2764.2,757.5,2775.9,762.4,2789.7,762.4"/>
<path class="st2" d="M2364.2-257.8c13.8,0,25.6-4.9,35.4-14.7c9.8-9.8,14.6-21.6,14.6-35.3s-4.9-25.6-14.6-35.4
	c-9.7-9.7-21.5-14.6-35.4-14.6c-13.8,0-25.6,4.9-35.4,14.6c-9.8,9.8-14.7,21.6-14.6,35.4c0,13.8,4.9,25.6,14.6,35.3
	C2338.6-262.7,2350.4-257.8,2364.2-257.8"/>
<path class="st2" d="M2364.2-26.2c13.8,0,25.6-4.9,35.4-14.7c9.8-9.8,14.6-21.6,14.6-35.3s-4.9-25.6-14.6-35.4
	c-9.7-9.7-21.5-14.6-35.4-14.6c-13.8,0-25.6,4.9-35.4,14.6c-9.8,9.8-14.7,21.6-14.6,35.4c0,13.8,4.9,25.6,14.6,35.3
	C2338.6-31.1,2350.4-26.2,2364.2-26.2"/>
<path class="st2" d="M2364.2-489.4c13.8,0,25.6-4.9,35.4-14.7c9.8-9.8,14.6-21.6,14.6-35.3s-4.9-25.6-14.6-35.4
	c-9.7-9.7-21.5-14.6-35.4-14.6c-13.8,0-25.6,4.9-35.4,14.6c-9.8,9.8-14.7,21.6-14.6,35.4c0,13.8,4.9,25.6,14.6,35.3
	C2338.6-494.3,2350.4-489.4,2364.2-489.4"/>
<path class="st2" d="M2620.3,592.9c13.8,0,25.6-4.9,35.4-14.7c9.8-9.8,14.6-21.6,14.6-35.3s-4.9-25.6-14.6-35.4
	c-9.7-9.7-21.5-14.6-35.4-14.6c-13.8,0-25.6,4.9-35.3,14.6c-9.8,9.8-14.7,21.6-14.7,35.4s4.9,25.6,14.7,35.3
	C2594.7,588,2606.5,592.9,2620.3,592.9"/>
<path class="st2" d="M2959.2,931.9c13.8,0,25.6-4.9,35.4-14.7c9.8-9.8,14.6-21.6,14.6-35.3s-4.9-25.6-14.6-35.4
	c-9.7-9.7-21.5-14.6-35.4-14.6c-13.8,0-25.6,4.9-35.4,14.6c-9.8,9.8-14.7,21.6-14.6,35.4c0,13.8,4.9,25.6,14.6,35.3
	C2933.6,927,2945.4,931.9,2959.2,931.9"/>
<path class="st2" d="M3128.7,1101.4c13.8,0,25.6-4.9,35.4-14.7c9.8-9.8,14.6-21.6,14.6-35.3s-4.9-25.6-14.6-35.4
	c-9.7-9.7-21.5-14.6-35.4-14.6c-13.8,0-25.6,4.9-35.3,14.6c-9.8,9.8-14.7,21.6-14.7,35.4s4.9,25.6,14.7,35.3
	C3103.1,1096.5,3114.9,1101.4,3128.7,1101.4"/>
<line class="st1" x1="2364.2" y1="3.8" x2="2554.5" y2="194.1"/>
<path class="st2" d="M2488.7,178.4c13.8,0,25.6-4.9,35.4-14.7c9.8-9.8,14.6-21.6,14.6-35.3s-4.9-25.6-14.6-35.4
	c-9.7-9.7-21.5-14.6-35.4-14.6c-13.8,0-25.6,4.9-35.3,14.6c-9.8,9.8-14.7,21.6-14.7,35.4s4.9,25.6,14.7,35.3
	C2463.1,173.5,2474.9,178.4,2488.7,178.4"/>
<line class="st1" x1="3387.5" y1="1117.1" x2="3729.2" y2="1458.8"/>
<path class="st2" d="M3601.7,1381.4c13.8,0,25.6-4.9,35.4-14.7c9.8-9.8,14.6-21.6,14.6-35.3s-4.9-25.6-14.6-35.4
	c-9.7-9.7-21.5-14.6-35.4-14.6c-13.8,0-25.6,4.9-35.4,14.6c-9.8,9.8-14.7,21.6-14.6,35.4c0,13.8,4.9,25.6,14.6,35.3
	C3576.2,1376.5,3587.9,1381.4,3601.7,1381.4"/>
<path class="st2" d="M3476.8,1256.5c13.8,0,25.6-4.9,35.4-14.7c9.8-9.8,14.6-21.6,14.6-35.3s-4.9-25.6-14.6-35.4
	c-9.7-9.7-21.5-14.6-35.4-14.6c-13.8,0-25.6,4.9-35.3,14.6c-9.8,9.8-14.7,21.6-14.7,35.4s4.9,25.6,14.7,35.3
	C3451.2,1251.6,3463,1256.5,3476.8,1256.5"/>
<path class="st2" d="M3735.9,1512.8c13.8,0,25.6-4.9,35.4-14.7c9.8-9.8,14.6-21.6,14.6-35.3s-4.9-25.6-14.6-35.4
	c-9.7-9.7-21.5-14.6-35.4-14.6c-13.8,0-25.6,4.9-35.3,14.6c-9.8,9.8-14.7,21.6-14.7,35.4s4.9,25.6,14.7,35.3
	C3710.3,1507.9,3722.1,1512.8,3735.9,1512.8"/>
<g>
	<path class="st0" d="M3875.9,1495.1h-5.3v-13.2h-35.1v13.2h-5.3v-18.4h3.8c3.3-6,6.1-13,8.4-21c2.3-8,3.6-15.6,3.9-22.8h23.1v43.8
		h6.6V1495.1z M3863.6,1476.7v-38.6h-12.4c-0.4,5.6-1.6,12.2-3.8,19.8c-2.1,7.5-4.5,13.8-7.1,18.9H3863.6z"/>
	<path class="st0" d="M3911.8,1446.9l-16.1,40.6c-2.9,7.2-6.9,10.9-12.1,10.9c-1.5,0-2.7-0.1-3.7-0.4v-5c1.2,0.4,2.3,0.6,3.3,0.6
		c2.8,0,4.9-1.7,6.4-5.1l2.8-6.6l-13.7-34.9h6.2l9.5,26.9c0.1,0.3,0.4,1.2,0.7,2.7h0.2c0.1-0.5,0.3-1.4,0.7-2.6l9.9-27H3911.8z"/>
	<path class="st0" d="M3944.9,1429.7v5.3c-0.9,0.7-2.4,1.2-4.5,1.5c-5.1,0.8-8.7,1.5-10.8,2.2c-2,0.7-3.7,2.3-5,4.6
		c-1.3,2.3-2.1,5.8-2.5,10.3h0.1c2.7-4,6.6-5.9,11.7-5.9c4.6,0,8.4,1.6,11.2,4.8c2.8,3.2,4.2,7.3,4.2,12.5c0,5.4-1.5,9.7-4.4,12.9
		c-3,3.2-6.9,4.9-11.9,4.9c-5.4,0-9.5-1.9-12.4-5.7c-2.9-3.8-4.4-9.3-4.4-16.4c0-5.5,0.5-10.2,1.6-14c1-3.8,2.5-6.7,4.4-8.7
		c1.9-1.9,3.9-3.3,6.2-4c2.3-0.7,6.2-1.6,11.7-2.6C3942.2,1430.9,3943.8,1430.3,3944.9,1429.7z M3922,1459.1v4.9
		c0,1.8,0.3,3.6,0.8,5.4c0.5,1.8,1.3,3.3,2.3,4.6c1,1.3,2.1,2.3,3.5,3c1.3,0.7,2.9,1,4.6,1c3.1,0,5.6-1.2,7.6-3.5
		c1.9-2.3,2.9-5.3,2.9-9c0-4-1-7.2-3-9.6c-2-2.4-4.6-3.5-8-3.5C3928,1452.4,3924.4,1454.7,3922,1459.1z"/>
	<path class="st0" d="M3964.1,1476.9h-0.1v21.2h-5.6v-51.1h5.6v6.2h0.1c2.8-4.6,6.8-7,12.1-7c4.5,0,8,1.6,10.6,4.7
		c2.5,3.1,3.8,7.3,3.8,12.6c0,5.9-1.4,10.5-4.3,14.1c-2.8,3.5-6.7,5.3-11.7,5.3C3970.1,1482.7,3966.6,1480.8,3964.1,1476.9z
		 M3964,1462.7v4.9c0,2.9,0.9,5.3,2.8,7.4c1.9,2,4.3,3,7.2,3c3.4,0,6.1-1.3,8-3.9s2.9-6.2,2.9-10.8c0-3.9-0.9-6.9-2.7-9.2
		c-1.8-2.2-4.2-3.3-7.3-3.3c-3.3,0-5.9,1.1-7.9,3.4C3964.9,1456.5,3964,1459.3,3964,1462.7z"/>
	<path class="st0" d="M4024.6,1481.9h-5.6v-5.5h-0.1c-2.4,4.2-6,6.3-10.8,6.3c-3.5,0-6.2-0.9-8.2-2.8c-2-1.8-3-4.3-3-7.3
		c0-6.5,3.9-10.3,11.6-11.4l10.5-1.5c0-5.9-2.4-8.9-7.2-8.9c-4.2,0-8,1.4-11.4,4.3v-5.7c3.4-2.2,7.4-3.3,11.9-3.3
		c8.2,0,12.3,4.4,12.3,13.1V1481.9z M4019,1464.2l-8.4,1.2c-2.6,0.4-4.6,1-5.9,1.9c-1.3,0.9-2,2.6-2,4.9c0,1.7,0.6,3.1,1.8,4.2
		s2.8,1.6,4.9,1.6c2.8,0,5.1-1,6.9-2.9c1.8-1.9,2.7-4.4,2.7-7.4V1464.2z"/>
	<path class="st0" d="M4035.1,1481.9v-35h15.2c3.4,0,6.2,0.8,8.2,2.3c2,1.5,3,3.6,3,6.3c0,4.5-2.2,7.3-6.7,8.3c5.4,0.7,8,3.4,8,8.1
		c0,2.8-1.1,5.2-3.3,7.2c-2.2,1.9-4.9,2.9-8.2,2.9H4035.1z M4040.7,1451.7v9.8h8.4c4.5,0,6.8-1.8,6.8-5.3c0-3.1-2-4.6-6.1-4.6
		H4040.7z M4040.7,1466.3v10.8h9.7c4.5,0,6.8-1.8,6.8-5.5c0-3.5-2.5-5.3-7.6-5.3H4040.7z"/>
	<path class="st0" d="M4101.3,1481.9h-5.6V1466h-17.8v15.9h-5.6v-35h5.6v14.4h17.8v-14.4h5.6V1481.9z"/>
	<path class="st0" d="M4137.7,1481.9h-5.6v-5.5h-0.1c-2.4,4.2-6,6.3-10.8,6.3c-3.5,0-6.2-0.9-8.2-2.8c-2-1.8-3-4.3-3-7.3
		c0-6.5,3.9-10.3,11.6-11.4l10.5-1.5c0-5.9-2.4-8.9-7.2-8.9c-4.2,0-8,1.4-11.4,4.3v-5.7c3.4-2.2,7.4-3.3,11.9-3.3
		c8.2,0,12.3,4.4,12.3,13.1V1481.9z M4132.1,1464.2l-8.4,1.2c-2.6,0.4-4.6,1-5.9,1.9c-1.3,0.9-2,2.6-2,4.9c0,1.7,0.6,3.1,1.8,4.2
		s2.8,1.6,4.9,1.6c2.8,0,5.1-1,6.9-2.9c1.8-1.9,2.7-4.4,2.7-7.4V1464.2z"/>
	<path class="st0" d="M4172.1,1481.9h-5.6v-14.5h-4.7c-2.3,0-4.3,1.8-6.2,5.5l-4.5,9h-6.5l5.9-10.8c1.4-2.5,3-4.2,5-5
		c-2.7-0.4-4.8-1.4-6.3-3s-2.2-3.7-2.2-6.2c0-3.1,1.1-5.6,3.4-7.4c2.2-1.8,5.4-2.7,9.5-2.7h12.2V1481.9z M4166.5,1462.7v-11h-6.6
		c-4.7,0-7.1,1.8-7.1,5.4c0,3.8,2.3,5.7,6.9,5.7H4166.5z"/>
</g>
</svg>
