<svg width="22" height="13" viewBox="0 0 22 13" fill="none" xmlns="http://www.w3.org/2000/svg">
<path d="M20.9951 12.5201L18.0593 12.561C18.0593 12.561 17.426 12.6851 16.5978 12.113C15.4992 11.3587 14.4636 9.39578 13.6558 9.65038C12.837 9.91126 12.8621 11.6777 12.8621 11.6777C12.8621 11.6777 12.8684 11.9889 12.6814 12.1916C12.4786 12.4101 12.081 12.3881 12.081 12.3881H10.7656C10.7656 12.3881 7.86447 12.6285 5.3075 9.96312C2.52266 7.05726 0.0615554 1.32255 0.0615554 1.32255C0.0615554 1.32255 -0.083031 0.961089 0.0709842 0.775642C0.24543 0.571336 0.715334 0.565048 0.715334 0.565048L3.8585 0.549334C3.8585 0.549334 4.15396 0.601195 4.3677 0.758353C4.54214 0.887223 4.64115 1.12925 4.64115 1.12925C4.64115 1.12925 5.14877 2.41637 5.82298 3.58249C7.13683 5.855 7.7466 6.35319 8.19293 6.1096C8.84357 5.75442 8.64869 2.89728 8.64869 2.89728C8.64869 2.89728 8.66126 1.86003 8.3218 1.39799C8.05777 1.0381 7.56115 0.931228 7.34428 0.904511C7.16669 0.880938 7.45586 0.469182 7.83304 0.283735C8.39881 0.00713613 9.39834 -0.00857954 10.5786 0.00242155C11.498 0.011851 11.7636 0.0684289 12.1219 0.156438C13.2063 0.418892 12.8385 1.43099 12.8385 3.85909C12.8385 4.63702 12.6987 5.73085 13.2581 6.09074C13.5002 6.24633 14.0895 6.11431 15.5589 3.60921C16.2583 2.42109 16.7816 1.02552 16.7816 1.02552C16.7816 1.02552 16.8964 0.777213 17.074 0.670345C17.2563 0.560334 17.5014 0.594909 17.5014 0.594909L20.8096 0.574479C20.8096 0.574479 21.8029 0.455037 21.9647 0.906082C22.1345 1.37756 21.5938 2.47924 20.2423 4.28185C18.0232 7.24271 17.7765 6.96768 19.6199 8.68071C21.3801 10.3167 21.7431 11.1119 21.8044 11.2125C22.5321 12.4242 20.9951 12.5201 20.9951 12.5201Z" fill="#111"/>
</svg>
